<svg width="79" height="79" viewBox="0 0 79 79" fill="none" xmlns="http://www.w3.org/2000/svg">
<path d="M39.5007 69.1252L34.7277 64.8461C29.1868 59.8537 24.6059 55.5471 20.985 51.9263C17.3642 48.3054 14.484 45.0686 12.3444 42.2159C10.2048 39.3082 8.69614 36.6475 7.81836 34.2336C6.99544 31.8197 6.58398 29.3509 6.58398 26.8273C6.58398 21.6704 8.31211 17.3638 11.7684 13.9075C15.2246 10.4513 19.5312 8.72314 24.6882 8.72314C27.5409 8.72314 30.2566 9.32662 32.835 10.5336C35.4135 11.7405 37.6354 13.4412 39.5007 15.6356C41.3659 13.4412 43.5878 11.7405 46.1663 10.5336C48.7448 9.32662 51.4604 8.72314 54.3132 8.72314C59.4701 8.72314 63.7767 10.4513 67.2329 13.9075C70.6892 17.3638 72.4173 21.6704 72.4173 26.8273C72.4173 29.3509 71.9784 31.8197 71.1007 34.2336C70.2777 36.6475 68.7965 39.3082 66.6569 42.2159C64.5173 45.0686 61.6371 48.3054 58.0163 51.9263C54.3954 55.5471 49.8145 59.8537 44.2736 64.8461L39.5007 69.1252ZM39.5007 60.2377C44.7673 55.5197 49.1013 51.4874 52.5027 48.1409C55.9041 44.7395 58.5923 41.8044 60.5673 39.3356C62.5423 36.812 63.9139 34.5902 64.6819 32.67C65.45 30.695 65.834 28.7475 65.834 26.8273C65.834 23.5356 64.7368 20.7926 62.5423 18.5981C60.3479 16.4037 57.6048 15.3065 54.3132 15.3065C51.7347 15.3065 49.3482 16.0471 47.1538 17.5284C44.9593 18.9547 43.4507 20.7926 42.6277 23.0419H36.3736C35.5507 20.7926 34.042 18.9547 31.8475 17.5284C29.6531 16.0471 27.2666 15.3065 24.6882 15.3065C21.3965 15.3065 18.6534 16.4037 16.459 18.5981C14.2645 20.7926 13.1673 23.5356 13.1673 26.8273C13.1673 28.7475 13.5513 30.695 14.3194 32.67C15.0875 34.5902 16.459 36.812 18.434 39.3356C20.409 41.8044 23.0972 44.7395 26.4986 48.1409C29.9 51.4874 34.234 55.5197 39.5007 60.2377Z" fill="#AF1A1D"/>
</svg>
