<svg width="85" height="85" viewBox="0 0 85 85" fill="none" xmlns="http://www.w3.org/2000/svg">
<path d="M42.5007 77.9168C37.6604 77.9168 33.0857 76.9871 28.7767 75.1278C24.4677 73.2684 20.7046 70.7302 17.4876 67.5132C14.2706 64.2962 11.7324 60.5332 9.87305 56.2241C8.01367 51.9151 7.08398 47.3404 7.08398 42.5002C7.08398 37.6009 8.01367 33.0114 9.87305 28.7319C11.7324 24.4524 14.2706 20.7042 17.4876 17.4871C20.7046 14.2701 24.4677 11.7319 28.7767 9.87256C33.0857 8.01318 37.6604 7.0835 42.5007 7.0835C47.4 7.0835 51.9894 8.01318 56.2689 9.87256C60.5484 11.7319 64.2967 14.2701 67.5137 17.4871C70.7307 20.7042 73.2689 24.4524 75.1283 28.7319C76.9876 33.0114 77.9173 37.6009 77.9173 42.5002C77.9173 47.3404 76.9876 51.9151 75.1283 56.2241C73.2689 60.5332 70.7307 64.2962 67.5137 67.5132C64.2967 70.7302 60.5484 73.2684 56.2689 75.1278C51.9894 76.9871 47.4 77.9168 42.5007 77.9168ZM42.5007 70.6564C44.0354 68.5314 45.3635 66.3179 46.485 64.0158C47.6066 61.7137 48.5215 59.2641 49.2298 56.6668H35.7715C36.4798 59.2641 37.3947 61.7137 38.5163 64.0158C39.6378 66.3179 40.9659 68.5314 42.5007 70.6564ZM33.2923 69.2398C32.2298 67.2918 31.3001 65.2701 30.5033 63.1746C29.7064 61.0792 29.0423 58.9099 28.5111 56.6668H18.0632C19.775 59.6182 21.9147 62.1859 24.4824 64.37C27.0501 66.554 29.9868 68.1773 33.2923 69.2398ZM51.709 69.2398C55.0145 68.1773 57.9512 66.554 60.5189 64.37C63.0866 62.1859 65.2263 59.6182 66.9382 56.6668H56.4902C55.959 58.9099 55.2949 61.0792 54.498 63.1746C53.7012 65.2701 52.7715 67.2918 51.709 69.2398ZM15.0527 49.5835H27.0944C26.9173 48.4029 26.7845 47.2371 26.696 46.0861C26.6074 44.9351 26.5632 43.7397 26.5632 42.5002C26.5632 41.2606 26.6074 40.0653 26.696 38.9142C26.7845 37.7632 26.9173 36.5974 27.0944 35.4168H15.0527C14.7576 36.5974 14.5362 37.7632 14.3887 38.9142C14.2411 40.0653 14.1673 41.2606 14.1673 42.5002C14.1673 43.7397 14.2411 44.9351 14.3887 46.0861C14.5362 47.2371 14.7576 48.4029 15.0527 49.5835ZM34.1777 49.5835H50.8236C51.0007 48.4029 51.1335 47.2371 51.222 46.0861C51.3105 44.9351 51.3548 43.7397 51.3548 42.5002C51.3548 41.2606 51.3105 40.0653 51.222 38.9142C51.1335 37.7632 51.0007 36.5974 50.8236 35.4168H34.1777C34.0007 36.5974 33.8678 37.7632 33.7793 38.9142C33.6908 40.0653 33.6465 41.2606 33.6465 42.5002C33.6465 43.7397 33.6908 44.9351 33.7793 46.0861C33.8678 47.2371 34.0007 48.4029 34.1777 49.5835ZM57.9069 49.5835H69.9486C70.2437 48.4029 70.4651 47.2371 70.6126 46.0861C70.7602 44.9351 70.834 43.7397 70.834 42.5002C70.834 41.2606 70.7602 40.0653 70.6126 38.9142C70.4651 37.7632 70.2437 36.5974 69.9486 35.4168H57.9069C58.084 36.5974 58.2168 37.7632 58.3053 38.9142C58.3939 40.0653 58.4382 41.2606 58.4382 42.5002C58.4382 43.7397 58.3939 44.9351 58.3053 46.0861C58.2168 47.2371 58.084 48.4029 57.9069 49.5835ZM56.4902 28.3335H66.9382C65.2263 25.3821 63.0866 22.8144 60.5189 20.6304C57.9512 18.4463 55.0145 16.8231 51.709 15.7606C52.7715 17.7085 53.7012 19.7302 54.498 21.8257C55.2949 23.9212 55.959 26.0904 56.4902 28.3335ZM35.7715 28.3335H49.2298C48.5215 25.7363 47.6066 23.2866 46.485 20.9845C45.3635 18.6825 44.0354 16.4689 42.5007 14.3439C40.9659 16.4689 39.6378 18.6825 38.5163 20.9845C37.3947 23.2866 36.4798 25.7363 35.7715 28.3335ZM18.0632 28.3335H28.5111C29.0423 26.0904 29.7064 23.9212 30.5033 21.8257C31.3001 19.7302 32.2298 17.7085 33.2923 15.7606C29.9868 16.8231 27.0501 18.4463 24.4824 20.6304C21.9147 22.8144 19.775 25.3821 18.0632 28.3335Z" fill="#AF1A1D"/>
</svg>
