<svg width="118" height="118" viewBox="0 0 118 118" fill="none" xmlns="http://www.w3.org/2000/svg">
<path d="M0 88.5V80.7562C0 77.2326 1.80278 74.3646 5.40833 72.1521C9.01389 69.9396 13.7667 68.8333 19.6667 68.8333C20.7319 68.8333 21.7562 68.8538 22.7396 68.8948C23.7229 68.9358 24.6653 69.0382 25.5667 69.2021C24.4194 70.9229 23.559 72.7257 22.9854 74.6104C22.4118 76.4951 22.125 78.4618 22.125 80.5104V88.5H0ZM29.5 88.5V80.5104C29.5 77.8882 30.217 75.4913 31.651 73.3198C33.0851 71.1483 35.1132 69.2431 37.7354 67.6042C40.3576 65.9653 43.492 64.7361 47.1385 63.9167C50.7851 63.0972 54.7389 62.6875 59 62.6875C63.3431 62.6875 67.3378 63.0972 70.9844 63.9167C74.6309 64.7361 77.7653 65.9653 80.3875 67.6042C83.0097 69.2431 85.0174 71.1483 86.4104 73.3198C87.8035 75.4913 88.5 77.8882 88.5 80.5104V88.5H29.5ZM95.875 88.5V80.5104C95.875 78.3799 95.6087 76.3722 95.076 74.4875C94.5434 72.6028 93.7444 70.841 92.6792 69.2021C93.5806 69.0382 94.5024 68.9358 95.4448 68.8948C96.3872 68.8538 97.35 68.8333 98.3333 68.8333C104.233 68.8333 108.986 69.9191 112.592 72.0906C116.197 74.2622 118 77.1507 118 80.7562V88.5H95.875ZM39.9479 78.6667H78.175C77.3556 77.0278 75.0816 75.5937 71.3531 74.3646C67.6246 73.1354 63.5069 72.5208 59 72.5208C54.4931 72.5208 50.3753 73.1354 46.6469 74.3646C42.9184 75.5937 40.6854 77.0278 39.9479 78.6667ZM19.6667 63.9167C16.9625 63.9167 14.6476 62.9538 12.7219 61.0281C10.7962 59.1024 9.83333 56.7875 9.83333 54.0833C9.83333 51.2972 10.7962 48.9618 12.7219 47.0771C14.6476 45.1924 16.9625 44.25 19.6667 44.25C22.4528 44.25 24.7882 45.1924 26.6729 47.0771C28.5576 48.9618 29.5 51.2972 29.5 54.0833C29.5 56.7875 28.5576 59.1024 26.6729 61.0281C24.7882 62.9538 22.4528 63.9167 19.6667 63.9167ZM98.3333 63.9167C95.6292 63.9167 93.3142 62.9538 91.3885 61.0281C89.4628 59.1024 88.5 56.7875 88.5 54.0833C88.5 51.2972 89.4628 48.9618 91.3885 47.0771C93.3142 45.1924 95.6292 44.25 98.3333 44.25C101.119 44.25 103.455 45.1924 105.34 47.0771C107.224 48.9618 108.167 51.2972 108.167 54.0833C108.167 56.7875 107.224 59.1024 105.34 61.0281C103.455 62.9538 101.119 63.9167 98.3333 63.9167ZM59 59C54.9028 59 51.4201 57.566 48.5521 54.6979C45.684 51.8299 44.25 48.3472 44.25 44.25C44.25 40.0708 45.684 36.5677 48.5521 33.7406C51.4201 30.9135 54.9028 29.5 59 29.5C63.1792 29.5 66.6823 30.9135 69.5094 33.7406C72.3365 36.5677 73.75 40.0708 73.75 44.25C73.75 48.3472 72.3365 51.8299 69.5094 54.6979C66.6823 57.566 63.1792 59 59 59ZM59 49.1667C60.3931 49.1667 61.5608 48.6955 62.5031 47.7531C63.4455 46.8108 63.9167 45.6431 63.9167 44.25C63.9167 42.8569 63.4455 41.6892 62.5031 40.7469C61.5608 39.8045 60.3931 39.3333 59 39.3333C57.6069 39.3333 56.4392 39.8045 55.4969 40.7469C54.5545 41.6892 54.0833 42.8569 54.0833 44.25C54.0833 45.6431 54.5545 46.8108 55.4969 47.7531C56.4392 48.6955 57.6069 49.1667 59 49.1667Z" fill="#AF1A1D"/>
</svg>
