<svg width="87" height="87" viewBox="0 0 87 87" fill="none" xmlns="http://www.w3.org/2000/svg">
<path d="M29 65.25L43.5 54.1937L58 65.25L52.5625 47.3063L67.0625 36.975H49.3L43.5 18.125L37.7 36.975H19.9375L34.4375 47.3063L29 65.25ZM43.5 79.75C38.4854 79.75 33.7729 78.7984 29.3625 76.8953C24.9521 74.9922 21.1156 72.4094 17.8531 69.1469C14.5906 65.8844 12.0078 62.0479 10.1047 57.6375C8.20156 53.2271 7.25 48.5146 7.25 43.5C7.25 38.4854 8.20156 33.7729 10.1047 29.3625C12.0078 24.9521 14.5906 21.1156 17.8531 17.8531C21.1156 14.5906 24.9521 12.0078 29.3625 10.1047C33.7729 8.20156 38.4854 7.25 43.5 7.25C48.5146 7.25 53.2271 8.20156 57.6375 10.1047C62.0479 12.0078 65.8844 14.5906 69.1469 17.8531C72.4094 21.1156 74.9922 24.9521 76.8953 29.3625C78.7984 33.7729 79.75 38.4854 79.75 43.5C79.75 48.5146 78.7984 53.2271 76.8953 57.6375C74.9922 62.0479 72.4094 65.8844 69.1469 69.1469C65.8844 72.4094 62.0479 74.9922 57.6375 76.8953C53.2271 78.7984 48.5146 79.75 43.5 79.75Z" fill="#AF1A1D"/>
</svg>
